<?xml version="1.0" encoding="UTF-8"?>
<svg id="Camada_1" data-name="Camada 1" xmlns="http://www.w3.org/2000/svg" viewBox="0 0 1080 1080">
  <g>
    <path d="M364.68,555.54c-14.71,0-27.55-1.31-39.36-5.06l4.69-14.9c9.47,3.19,20.71,5.25,34.67,5.25,16.03,0,21.74-1.97,21.74-5.34s-4.97-4.22-20.8-5.44c-27.27-1.97-40.2-6.37-40.2-20.71s17.71-20.34,43.76-20.34c13.31,0,27.83,1.22,37.2,4.87l-4.5,15.09c-8.62-3.47-20.24-5.15-32.71-5.15-15.18,0-21.27,1.22-21.27,4.12s4.12,4.03,18.74,5.15c27.83,1.97,41.7,4.87,41.7,19.96,0,16.68-18.84,22.49-43.67,22.49Z"/>
    <path d="M503.46,527.98c0,21.93-25.02,27.55-43.58,27.55s-43.58-5.62-43.58-27.55v-37.3h21.65v35.14c0,8.53,7.4,14.71,21.93,14.71s21.93-6.19,21.93-14.71v-35.14h21.65v37.3Z"/>
    <path d="M573.19,536.7h-37.86v17.15h-21.65v-63.16h59.41c14.81,0,25.96,7.31,25.96,22.68s-11.15,23.33-25.87,23.33ZM567.28,505.59h-31.96v16.21h32.52c5.15,0,9-3.19,9-8.43s-4.03-7.78-9.56-7.78Z"/>
    <path d="M607.2,553.85v-63.16h78.63v14.99h-56.98v7.5h56.98v14.34h-56.98v11.34h56.98v14.99h-78.63Z"/>
    <path d="M753.58,553.85l-19.59-22.12h-16.31v22.12h-21.65v-63.16h60.26c12.56,0,23.52,6.28,23.52,19.87,0,11.81-8.62,18.46-18.93,19.49h-1.97l23.52,23.8h-28.86ZM751.14,505.59h-33.45v12h33.92c4.31,0,7.12-2.06,7.12-6.19,0-3.56-3-5.81-7.59-5.81Z"/>
  </g>
  <g>
    <path d="M377.96,637.34c-24.65,0-49.11-8.62-49.11-33.27,0-25.87,27.83-33.27,49.11-33.27,15.18,0,28.21,2.16,39.55,7.4l-4.22,14.81c-10.21-4.22-21.09-6.56-33.36-6.56-19.21,0-28.68,6.65-28.68,17.81s10.12,17.81,28.58,17.81c5.25,0,10.87-.56,15.46-1.69v-18.18h21.65v29.43c-8.81,3-23.15,5.72-38.99,5.72Z"/>
    <path d="M427.44,635.66v-63.16h78.62v14.99h-56.98v7.5h56.98v14.34h-56.98v11.34h56.98v14.99h-78.62Z"/>
    <path d="M573.82,635.66l-19.59-22.12h-16.31v22.12h-21.65v-63.16h60.26c12.56,0,23.52,6.28,23.52,19.87,0,11.81-8.62,18.46-18.93,19.49h-1.97l23.52,23.8h-28.86ZM571.38,587.39h-33.45v12h33.92c4.31,0,7.12-2.06,7.12-6.19,0-3.56-3-5.81-7.59-5.81Z"/>
    <path d="M610.83,635.66v-63.16h78.63v14.99h-56.98v7.5h56.98v14.34h-56.98v11.34h56.98v14.99h-78.63Z"/>
    <path d="M789.45,636.97h-2.72l-65.41-33.92v32.61h-21.65v-64.48h2.72l65.41,33.64v-32.33h21.65v64.47Z"/>
    <path d="M852.14,588.89v46.76h-21.56v-46.76h-34.49v-16.4h90.62v16.4h-34.58Z"/>
    <path d="M893.37,635.66v-63.16h78.63v14.99h-56.98v7.5h56.98v14.34h-56.98v11.34h56.98v14.99h-78.63Z"/>
  </g>
  <g>
    <polygon points="247.75 493.47 207.39 534.95 293.3 534.95 293.3 493.47 247.75 493.47"/>
    <polygon points="162.21 621.6 205.91 621.6 205.91 537.91 162.21 577.9 162.21 621.6"/>
    <polygon points="210.72 620.86 249.98 621.97 249.98 667.51 292.93 624.56 292.93 579.57 252.01 579.57 210.72 620.86"/>
  </g>
</svg>